# xmcd CD database file
#
# Track frame offsets:
#	150
#	10635
#	47212
#	95940
#	114235
#	153387
#	204940
#	235472
#	272035
#
# Disc length: 4168 seconds
#
# Revision: 0
# Processed by: cddbd v1.4PL0 Copyright (c) Steve Scherf et al.
# Submitted via: CDex 1.50Beta7
#
DISCID=72104609
DTITLE=Java Men - Orbituary
DYEAR=1999
DGENRE=Jazz
TTITLE0=Orbituary
TTITLE1=The Maja Ven
TTITLE2=It's All Yours If You Want It
TTITLE3=Garfunkel
TTITLE4=Dark Ride
TTITLE5=Tsunami
TTITLE6=The Fhythm Schism
TTITLE7=Five
TTITLE8=Jed Came Home For Christmas
EXTD=YEAR: 1999
EXTT0=
EXTT1=
EXTT2=
EXTT3=
EXTT4=
EXTT5=
EXTT6=
EXTT7=
EXTT8=
PLAYORDER=
